<svg width="26" height="26" viewBox="0 0 26 26" fill="none" xmlns="http://www.w3.org/2000/svg">
<g clip-path="url(#clip0_655_1315)">
<path d="M24.926 12.6236C24.926 11.6111 24.8455 10.8722 24.6715 10.106H13.354V14.676H19.9971C19.8632 15.8118 19.14 17.5221 17.5327 18.6715L17.5102 18.8245L21.0886 21.6565L21.3365 21.6818C23.6134 19.5335 24.926 16.3727 24.926 12.6236Z" fill="#4285F4"/>
<path d="M13.3538 24.6647C16.6084 24.6647 19.3406 23.57 21.3363 21.6818L17.5326 18.6715C16.5147 19.3967 15.1485 19.903 13.3538 19.903C10.1662 19.903 7.46074 17.7548 6.49632 14.7856L6.35496 14.7978L2.63411 17.7397L2.58545 17.8779C4.56766 21.9007 8.63929 24.6647 13.3538 24.6647Z" fill="#34A853"/>
<path d="M6.49642 14.7856C6.24195 14.0194 6.09468 13.1983 6.09468 12.35C6.09468 11.5016 6.24195 10.6807 6.48303 9.91445L6.47629 9.75126L2.70881 6.76215L2.58555 6.82205C1.76858 8.49139 1.2998 10.366 1.2998 12.35C1.2998 14.3341 1.76858 16.2086 2.58555 17.8779L6.49642 14.7856Z" fill="#FBBC05"/>
<path d="M13.3538 4.79688C15.6173 4.79688 17.1441 5.79573 18.0147 6.63045L21.4167 3.23704C19.3273 1.25301 16.6084 0.0352173 13.3538 0.0352173C8.63929 0.0352173 4.56766 2.79917 2.58545 6.82194L6.48293 9.91435C7.46075 6.94514 10.1662 4.79688 13.3538 4.79688Z" fill="#EB4335"/>
</g>
<defs>
<clipPath id="clip0_655_1315">
<rect x="1.2998" width="23.6261" height="24.7" rx="11.813" fill="white"/>
</clipPath>
</defs>
</svg>
