<svg width="167" height="161" viewBox="0 0 167 161" fill="none" xmlns="http://www.w3.org/2000/svg">
<path d="M148.547 81.3894C148.547 117.006 119.675 145.878 84.0584 145.878C48.4422 145.878 19.5693 117.006 19.5693 81.3894C19.5693 45.7731 48.4422 16.9004 84.0584 16.9004C119.675 16.9004 148.547 45.7731 148.547 81.3894Z" fill="black"/>
<rect x="62.2651" y="59.5967" width="44.4751" height="44.4751" rx="10.674" fill="white"/>
<path d="M75.7556 82.6185C75.1362 81.9816 75.1433 80.9653 75.7715 80.3372C76.4148 79.6938 77.461 79.7042 78.0915 80.3602L82.1347 84.5672L91.3573 75.3446C91.9937 74.7083 93.0254 74.7083 93.6618 75.3446C94.2982 75.981 94.2981 77.0128 93.6617 77.6492L82.7709 88.5386C82.4201 88.8893 81.8501 88.8853 81.5043 88.5297L75.7556 82.6185Z" fill="black" stroke="black" stroke-width="0.889503"/>
<circle cx="17.7916" cy="9.78453" r="9.78453" fill="black"/>
<circle cx="159.223" cy="24.9061" r="7.11602" fill="black"/>
<circle cx="8.45281" cy="119.638" r="4.89227" fill="black"/>
<circle cx="55.5967" cy="157.887" r="3.11326" fill="black"/>
<circle cx="147.214" cy="143.654" r="2.22376" fill="black"/>
<circle cx="151.664" cy="99.1798" r="2.22376" fill="black"/>
<circle cx="108.523" cy="152.994" r="0.889503" fill="black"/>
<circle cx="0.891456" cy="67.6021" r="0.889503" fill="black"/>
<circle cx="94.733" cy="4.8927" r="2.22376" fill="black"/>
<path d="M40.6621 12L41.2598 13.8395L43.1939 13.8395L41.6292 14.9763L42.2268 16.8158L40.6621 15.6789L39.0974 16.8158L39.695 14.9763L38.1303 13.8395L40.0644 13.8395L40.6621 12Z" fill="black"/>
<path d="M40.6621 12L41.2598 13.8395L43.1939 13.8395L41.6292 14.9763L42.2268 16.8158L40.6621 15.6789L39.0974 16.8158L39.695 14.9763L38.1303 13.8395L40.0644 13.8395L40.6621 12Z" fill="black"/>
<path d="M7.66209 89L8.25977 90.8395L10.1939 90.8395L8.62916 91.9763L9.22683 93.8158L7.66209 92.6789L6.09735 93.8158L6.69503 91.9763L5.13029 90.8395L7.06442 90.8395L7.66209 89Z" fill="black"/>
<path d="M7.66209 89L8.25977 90.8395L10.1939 90.8395L8.62916 91.9763L9.22683 93.8158L7.66209 92.6789L6.09735 93.8158L6.69503 91.9763L5.13029 90.8395L7.06442 90.8395L7.66209 89Z" fill="black"/>
<path d="M154.662 37L155.26 38.8395L157.194 38.8395L155.629 39.9763L156.227 41.8158L154.662 40.6789L153.097 41.8158L153.695 39.9763L152.13 38.8395L154.064 38.8395L154.662 37Z" fill="black"/>
<path d="M154.662 37L155.26 38.8395L157.194 38.8395L155.629 39.9763L156.227 41.8158L154.662 40.6789L153.097 41.8158L153.695 39.9763L152.13 38.8395L154.064 38.8395L154.662 37Z" fill="black"/>
<path d="M68.1621 152L68.423 152.803H69.2673L68.5842 153.299L68.8452 154.102L68.1621 153.606L67.479 154.102L67.7399 153.299L67.0569 152.803H67.9012L68.1621 152Z" fill="black"/>
<path d="M68.1621 152L68.423 152.803H69.2673L68.5842 153.299L68.8452 154.102L68.1621 153.606L67.479 154.102L67.7399 153.299L67.0569 152.803H67.9012L68.1621 152Z" fill="black"/>
</svg>
