<svg width="393" height="852" viewBox="0 0 393 852" fill="none" xmlns="http://www.w3.org/2000/svg">
<g clip-path="url(#clip0_656_1956)">
<rect width="393" height="852" fill="black"/>
<path opacity="0.07" d="M375.739 668.127L121.278 903.041C120.371 885.544 117.498 873.786 119.509 862.649C128.083 815.047 109.513 781.79 77.832 748.942C-14.8373 652.885 -104.398 553.883 -194.175 455.08C-210.855 436.752 -228.682 426.953 -254.425 427.254C-276.327 427.479 -298.03 423.597 -327.599 420.791C-313.021 405.975 -305.381 397.563 -297.108 389.925C-172.43 274.674 -47.5968 159.505 77.1558 44.3357C172.95 -44.1003 303.524 -38.4913 379.823 57.2116C449.424 144.536 435.255 280.147 348.159 360.628C292.225 412.265 236.667 464.31 180.132 515.295C164.339 529.574 161.682 540.703 177.125 554.664C186.674 563.278 195.597 572.771 203.336 583.055C241.82 633.993 286.318 673.72 359.278 663.178C362.582 662.694 366.129 665.153 375.814 668.208L375.739 668.127ZM16.274 380.083C45.6433 411.896 75.8314 442.953 104 475.8C119.303 493.587 131.071 492.154 148.061 475.715C184.509 440.407 223.718 407.831 259.027 371.462C271.972 358.078 282.582 337.493 284.812 319.59C296.274 229.032 218.517 129.242 128.583 120.446C105.237 118.156 74.4692 122.266 56.412 135.993C11.5679 170.074 -27.5728 211.716 -69.6459 249.576C-83.7583 262.303 -84.2609 272.047 -72.0119 284.883C-42.0393 316.139 -13.1008 348.35 16.2309 380.123L16.274 380.083Z" fill="white"/>
<g clip-path="url(#clip1_656_1956)">
<path d="M115.277 440.86H99.1258C99.6482 440.232 99.9217 439.738 100.343 439.42C102.143 438.059 102.558 436.331 102.512 434.203C102.375 427.978 102.438 421.75 102.487 415.522C102.495 414.366 102.195 413.465 101.303 412.661C100.545 411.976 99.9245 411.156 99 410.124C99.9682 410.077 100.496 410.031 101.021 410.031C108.939 410.026 116.86 410.028 124.778 410.028C130.859 410.028 135.155 414.353 134.742 420.048C134.365 425.244 129.59 429.444 124.059 429.447C120.509 429.447 116.959 429.472 113.409 429.431C112.416 429.421 111.973 429.718 112.06 430.685C112.115 431.283 112.12 431.891 112.06 432.488C111.768 435.452 112.036 438.222 114.869 440.17C114.998 440.257 115.041 440.454 115.277 440.865V440.86ZM112.071 419.611C112.071 421.631 112.123 423.651 112.049 425.668C112.011 426.762 112.459 427.085 113.562 427.059C115.928 427.002 118.302 427.127 120.662 426.997C121.529 426.948 122.544 426.578 123.187 426.035C126.444 423.294 126.936 417.412 124.133 414.265C123.405 413.447 122.221 412.615 121.168 412.514C118.553 412.263 115.895 412.452 113.255 412.418C112.369 412.408 112.044 412.726 112.057 413.553C112.096 415.573 112.068 417.593 112.068 419.611H112.071Z" fill="white"/>
<path d="M162.107 440.811C162.567 440.103 163.248 439.528 163.234 438.97C163.209 437.953 162.843 436.924 162.493 435.941C161.702 433.719 160.078 433.021 157.58 433.184C154.14 433.412 150.666 433.275 147.209 433.223C146.145 433.207 145.486 433.554 145.086 434.459C144.843 435.013 144.572 435.561 144.263 436.081C143.391 437.545 142.357 438.977 143.987 440.834H137.228L137.083 440.602C137.702 440.175 138.361 439.792 138.924 439.309C139.512 438.802 140.171 438.277 140.522 437.627C143.812 431.516 147.023 425.365 150.316 419.257C150.858 418.253 150.803 417.498 150.182 416.556C148.842 414.521 147.74 412.333 145.551 410.918C145.357 410.791 145.272 410.515 145.021 410.132C145.623 410.088 146.055 410.028 146.484 410.028C149.534 410.021 152.583 410.067 155.63 410.003C156.795 409.977 157.446 410.403 157.993 411.337C162.881 419.66 167.826 427.949 172.697 436.28C173.425 437.524 174.292 438.54 175.572 439.275C176.215 439.642 176.8 440.097 177.306 440.806H162.107V440.811ZM152.682 420.622C150.718 424.199 148.937 427.442 147.083 430.825H159.309C157.08 427.396 155.009 424.207 152.682 420.622Z" fill="white"/>
<path d="M227.515 410.134C228.179 410.091 228.65 410.031 229.12 410.031C232.077 410.023 235.039 410.08 237.993 410.003C239.259 409.969 239.965 410.396 240.572 411.435C245.506 419.88 250.479 428.304 255.498 436.704C256.012 437.563 256.862 438.266 257.65 438.946C258.337 439.539 259.157 439.996 259.827 440.803H244.642C244.831 440.478 244.91 440.224 245.085 440.061C246.168 439.052 246.075 437.899 245.509 436.735C243.805 433.236 243.789 433.244 239.716 433.244C236.486 433.244 233.253 433.3 230.023 433.218C228.674 433.181 227.873 433.611 227.444 434.795C227.268 435.279 226.995 435.734 226.727 436.182C225.868 437.609 224.881 439.014 226.519 440.829H219.717C219.7 440.64 219.681 440.565 219.698 440.558C222.977 438.985 223.978 435.848 225.466 433.052C227.993 428.304 230.521 423.558 232.979 418.778C233.22 418.313 233.187 417.516 232.922 417.056C231.62 414.808 230.438 412.454 228.086 410.936C227.889 410.81 227.794 410.538 227.515 410.137V410.134ZM241.877 430.913C239.607 427.416 237.522 424.204 235.198 420.62C233.228 424.212 231.448 427.458 229.555 430.913H241.877Z" fill="white"/>
<path d="M206.977 440.858H190.53C191.561 439.74 192.431 438.941 193.107 438.015C193.561 437.389 193.957 436.593 193.998 435.853C194.116 433.712 194.1 431.56 194.007 429.416C193.974 428.697 193.711 427.885 193.274 427.3C190.12 423.1 186.964 418.9 183.657 414.808C182.631 413.538 181.146 412.594 179.847 411.526C179.42 411.174 178.914 410.91 178.444 410.605C178.561 410.455 178.676 410.305 178.794 410.155H194.105C193.834 410.685 193.52 411.045 193.487 411.425C193.427 412.167 193.23 413.104 193.602 413.641C196.11 417.257 198.752 420.793 201.474 424.522C201.928 424.072 202.286 423.777 202.57 423.428C205.147 420.265 207.69 417.076 210.292 413.931C210.97 413.111 211.284 412.361 210.754 411.355C210.283 410.458 210.625 409.997 211.738 410.018C213.721 410.054 215.707 410.028 217.873 410.028C217.668 410.442 217.633 410.706 217.482 410.786C214.454 412.441 212.772 415.266 210.694 417.738C208.489 420.361 206.334 423.02 204.241 425.72C203.798 426.291 203.53 427.106 203.503 427.82C203.413 430.223 203.547 432.63 203.437 435.031C203.372 436.461 203.705 437.609 204.862 438.579C205.557 439.161 206.104 439.901 206.977 440.855V440.858Z" fill="white"/>
<path d="M262.541 410.176H278.632C277.636 411.27 276.925 412.129 276.126 412.905C275.341 413.665 275.068 414.508 275.073 415.571C275.114 422.743 275.128 429.915 275.065 437.087C275.054 438.411 275.506 438.786 276.865 438.753C280.139 438.672 283.418 438.688 286.695 438.747C287.808 438.768 288.571 438.471 289.209 437.586C290.308 436.063 291.512 434.604 292.685 433.13C292.937 432.812 293.248 432.535 293.806 431.953C293.886 432.737 293.957 433.135 293.959 433.533C293.97 435.465 293.888 437.403 293.992 439.329C294.066 440.669 293.508 441.003 292.171 440.998C283.115 440.954 274.056 440.974 265 440.977C264.199 440.977 263.395 440.977 262.593 440.977C262.522 440.855 262.451 440.734 262.38 440.612C263.137 439.808 263.851 438.96 264.664 438.212C265.443 437.496 265.695 436.694 265.689 435.68C265.651 429.067 265.637 422.453 265.697 415.84C265.708 414.539 265.375 413.52 264.379 412.628C263.643 411.968 263.02 411.203 262.344 410.484C262.41 410.383 262.476 410.279 262.538 410.179L262.541 410.176Z" fill="white"/>
</g>
</g>
<defs>
<clipPath id="clip0_656_1956">
<rect width="393" height="852" fill="white"/>
</clipPath>
<clipPath id="clip1_656_1956">
<rect width="195" height="31" fill="white" transform="translate(99 410)"/>
</clipPath>
</defs>
</svg>
